<mxGraphModel dx="1478" dy="-1486" grid="1" gridSize="10" guides="1" tooltips="1" connect="1" arrows="1" fold="1" page="0" pageScale="1" pageWidth="827" pageHeight="1169" math="0" shadow="0"><root><mxCell id="0"/><mxCell id="1" parent="0"/><mxCell id="153" value="" style="rounded=0;whiteSpace=wrap;html=1;strokeColor=none;" parent="1" vertex="1"><mxGeometry x="-620" y="2580" width="890" height="912.5" as="geometry"/></mxCell><mxCell id="108" value="" style="whiteSpace=wrap;html=1;" parent="1" vertex="1"><mxGeometry x="-340" y="2620" width="160" height="360" as="geometry"/></mxCell><mxCell id="103" value="&lt;font style=&quot;font-size: 18px&quot;&gt;栈帧执行顺序&lt;/font&gt;" style="text;html=1;align=center;verticalAlign=middle;resizable=0;points=[];autosize=1;strokeColor=none;" parent="1" vertex="1"><mxGeometry x="-750" y="2600" width="120" height="20" as="geometry"/></mxCell><mxCell id="104" value="&lt;font style=&quot;font-size: 18px&quot;&gt;栈帧3&lt;/font&gt;" style="whiteSpace=wrap;html=1;fillColor=#dae8fc;strokeColor=#6c8ebf;" parent="1" vertex="1"><mxGeometry x="-320" y="2760" width="120" height="60" as="geometry"/></mxCell><mxCell id="105" value="&lt;font style=&quot;font-size: 18px&quot;&gt;栈帧4&lt;/font&gt;" style="whiteSpace=wrap;html=1;fillColor=#f8cecc;strokeColor=#b85450;" parent="1" vertex="1"><mxGeometry x="-320" y="2690" width="120" height="60" as="geometry"/></mxCell><mxCell id="106" value="&lt;font style=&quot;font-size: 18px&quot;&gt;栈帧2&lt;/font&gt;" style="whiteSpace=wrap;html=1;fillColor=#dae8fc;strokeColor=#6c8ebf;" parent="1" vertex="1"><mxGeometry x="-320" y="2830" width="120" height="60" as="geometry"/></mxCell><mxCell id="107" value="&lt;font style=&quot;font-size: 18px&quot;&gt;栈帧1&lt;/font&gt;" style="whiteSpace=wrap;html=1;fillColor=#dae8fc;strokeColor=#6c8ebf;" parent="1" vertex="1"><mxGeometry x="-320" y="2900" width="120" height="60" as="geometry"/></mxCell><mxCell id="111" style="edgeStyle=none;html=1;" parent="1" source="109" edge="1"><mxGeometry relative="1" as="geometry"><mxPoint x="-160" y="2720" as="targetPoint"/></mxGeometry></mxCell><mxCell id="109" value="&lt;font style=&quot;font-size: 18px&quot;&gt;当前栈帧&lt;/font&gt;" style="text;html=1;align=center;verticalAlign=middle;resizable=0;points=[];autosize=1;strokeColor=none;" parent="1" vertex="1"><mxGeometry x="-120" y="2710" width="90" height="20" as="geometry"/></mxCell><mxCell id="112" style="edgeStyle=none;html=1;" parent="1" source="110" edge="1"><mxGeometry relative="1" as="geometry"><mxPoint x="-160" y="2930" as="targetPoint"/></mxGeometry></mxCell><mxCell id="110" value="&lt;span style=&quot;font-size: 18px&quot;&gt;栈底&lt;/span&gt;" style="text;html=1;align=center;verticalAlign=middle;resizable=0;points=[];autosize=1;strokeColor=none;" parent="1" vertex="1"><mxGeometry x="-120" y="2920" width="50" height="20" as="geometry"/></mxCell><mxCell id="115" style="edgeStyle=none;html=1;entryX=0;entryY=0.5;entryDx=0;entryDy=0;dashed=1;" parent="1" source="114" target="107" edge="1"><mxGeometry relative="1" as="geometry"/></mxCell><mxCell id="122" style="edgeStyle=none;html=1;exitX=0.5;exitY=0;exitDx=0;exitDy=0;entryX=0.5;entryY=1;entryDx=0;entryDy=0;" parent="1" source="114" target="116" edge="1"><mxGeometry relative="1" as="geometry"/></mxCell><mxCell id="114" value="&lt;font style=&quot;font-size: 18px&quot;&gt;方法1&lt;/font&gt;" style="whiteSpace=wrap;html=1;fillColor=#dae8fc;strokeColor=#6c8ebf;" parent="1" vertex="1"><mxGeometry x="-580" y="2910" width="105" height="40" as="geometry"/></mxCell><mxCell id="119" style="edgeStyle=none;html=1;entryX=0;entryY=0.5;entryDx=0;entryDy=0;dashed=1;" parent="1" source="116" target="106" edge="1"><mxGeometry relative="1" as="geometry"/></mxCell><mxCell id="123" style="edgeStyle=none;html=1;exitX=0.5;exitY=0;exitDx=0;exitDy=0;entryX=0.5;entryY=1;entryDx=0;entryDy=0;" parent="1" source="116" target="117" edge="1"><mxGeometry relative="1" as="geometry"/></mxCell><mxCell id="116" value="&lt;font style=&quot;font-size: 18px&quot;&gt;方法2&lt;/font&gt;" style="whiteSpace=wrap;html=1;fillColor=#dae8fc;strokeColor=#6c8ebf;" parent="1" vertex="1"><mxGeometry x="-545" y="2840" width="105" height="40" as="geometry"/></mxCell><mxCell id="120" style="edgeStyle=none;html=1;dashed=1;" parent="1" source="117" target="104" edge="1"><mxGeometry relative="1" as="geometry"/></mxCell><mxCell id="124" style="edgeStyle=none;html=1;exitX=0.5;exitY=0;exitDx=0;exitDy=0;entryX=0.5;entryY=1;entryDx=0;entryDy=0;" parent="1" source="117" target="118" edge="1"><mxGeometry relative="1" as="geometry"/></mxCell><mxCell id="117" value="&lt;font style=&quot;font-size: 18px&quot;&gt;方法3&lt;/font&gt;" style="whiteSpace=wrap;html=1;fillColor=#dae8fc;strokeColor=#6c8ebf;" parent="1" vertex="1"><mxGeometry x="-502.5" y="2770" width="105" height="40" as="geometry"/></mxCell><mxCell id="121" style="edgeStyle=none;html=1;entryX=0;entryY=0.5;entryDx=0;entryDy=0;dashed=1;" parent="1" source="118" target="105" edge="1"><mxGeometry relative="1" as="geometry"/></mxCell><mxCell id="118" value="&lt;font style=&quot;font-size: 18px&quot;&gt;方法4&lt;/font&gt;" style="whiteSpace=wrap;html=1;fillColor=#dae8fc;strokeColor=#6c8ebf;" parent="1" vertex="1"><mxGeometry x="-455" y="2700" width="105" height="40" as="geometry"/></mxCell><mxCell id="126" style="edgeStyle=none;html=1;" parent="1" source="125" edge="1"><mxGeometry relative="1" as="geometry"><mxPoint x="-160" y="2640" as="targetPoint"/></mxGeometry></mxCell><mxCell id="125" value="&lt;font style=&quot;font-size: 18px&quot;&gt;栈顶&lt;/font&gt;" style="text;html=1;align=center;verticalAlign=middle;resizable=0;points=[];autosize=1;strokeColor=none;" parent="1" vertex="1"><mxGeometry x="-110" y="2630" width="50" height="20" as="geometry"/></mxCell><mxCell id="127" value="" style="whiteSpace=wrap;html=1;" parent="1" vertex="1"><mxGeometry x="-375" y="3080" width="160" height="360" as="geometry"/></mxCell><mxCell id="150" style="edgeStyle=none;html=1;exitX=1;exitY=0;exitDx=0;exitDy=0;entryX=0;entryY=0;entryDx=0;entryDy=0;dashed=1;" parent="1" source="128" target="144" edge="1"><mxGeometry relative="1" as="geometry"/></mxCell><mxCell id="151" style="edgeStyle=none;html=1;exitX=1;exitY=1;exitDx=0;exitDy=0;entryX=0;entryY=1;entryDx=0;entryDy=0;dashed=1;" parent="1" source="128" target="144" edge="1"><mxGeometry relative="1" as="geometry"/></mxCell><mxCell id="128" value="&lt;font style=&quot;font-size: 18px&quot;&gt;栈帧3&lt;/font&gt;" style="whiteSpace=wrap;html=1;fillColor=#dae8fc;strokeColor=#6c8ebf;" parent="1" vertex="1"><mxGeometry x="-355" y="3220" width="120" height="60" as="geometry"/></mxCell><mxCell id="129" value="&lt;font style=&quot;font-size: 18px&quot;&gt;栈帧4&lt;/font&gt;" style="whiteSpace=wrap;html=1;fillColor=#f8cecc;strokeColor=#b85450;" parent="1" vertex="1"><mxGeometry x="-355" y="3150" width="120" height="60" as="geometry"/></mxCell><mxCell id="130" value="&lt;font style=&quot;font-size: 18px&quot;&gt;栈帧2&lt;/font&gt;" style="whiteSpace=wrap;html=1;fillColor=#dae8fc;strokeColor=#6c8ebf;" parent="1" vertex="1"><mxGeometry x="-355" y="3290" width="120" height="60" as="geometry"/></mxCell><mxCell id="131" value="&lt;font style=&quot;font-size: 18px&quot;&gt;栈帧1&lt;/font&gt;" style="whiteSpace=wrap;html=1;fillColor=#dae8fc;strokeColor=#6c8ebf;" parent="1" vertex="1"><mxGeometry x="-355" y="3360" width="120" height="60" as="geometry"/></mxCell><mxCell id="132" style="edgeStyle=none;html=1;entryX=0;entryY=0.5;entryDx=0;entryDy=0;dashed=1;" parent="1" source="134" target="131" edge="1"><mxGeometry relative="1" as="geometry"/></mxCell><mxCell id="133" style="edgeStyle=none;html=1;exitX=0.5;exitY=0;exitDx=0;exitDy=0;entryX=0.5;entryY=1;entryDx=0;entryDy=0;" parent="1" source="134" target="137" edge="1"><mxGeometry relative="1" as="geometry"/></mxCell><mxCell id="134" value="&lt;font style=&quot;font-size: 18px&quot;&gt;方法1&lt;/font&gt;" style="whiteSpace=wrap;html=1;fillColor=#dae8fc;strokeColor=#6c8ebf;" parent="1" vertex="1"><mxGeometry x="-615" y="3370" width="105" height="40" as="geometry"/></mxCell><mxCell id="135" style="edgeStyle=none;html=1;entryX=0;entryY=0.5;entryDx=0;entryDy=0;dashed=1;" parent="1" source="137" target="130" edge="1"><mxGeometry relative="1" as="geometry"/></mxCell><mxCell id="136" style="edgeStyle=none;html=1;exitX=0.5;exitY=0;exitDx=0;exitDy=0;entryX=0.5;entryY=1;entryDx=0;entryDy=0;" parent="1" source="137" target="140" edge="1"><mxGeometry relative="1" as="geometry"/></mxCell><mxCell id="137" value="&lt;font style=&quot;font-size: 18px&quot;&gt;方法2&lt;/font&gt;" style="whiteSpace=wrap;html=1;fillColor=#dae8fc;strokeColor=#6c8ebf;" parent="1" vertex="1"><mxGeometry x="-580" y="3300" width="105" height="40" as="geometry"/></mxCell><mxCell id="138" style="edgeStyle=none;html=1;dashed=1;" parent="1" source="140" target="128" edge="1"><mxGeometry relative="1" as="geometry"/></mxCell><mxCell id="139" style="edgeStyle=none;html=1;exitX=0.5;exitY=0;exitDx=0;exitDy=0;entryX=0.5;entryY=1;entryDx=0;entryDy=0;" parent="1" source="140" target="142" edge="1"><mxGeometry relative="1" as="geometry"/></mxCell><mxCell id="140" value="&lt;font style=&quot;font-size: 18px&quot;&gt;方法3&lt;/font&gt;" style="whiteSpace=wrap;html=1;fillColor=#dae8fc;strokeColor=#6c8ebf;" parent="1" vertex="1"><mxGeometry x="-537.5" y="3230" width="105" height="40" as="geometry"/></mxCell><mxCell id="141" style="edgeStyle=none;html=1;entryX=0;entryY=0.5;entryDx=0;entryDy=0;dashed=1;" parent="1" source="142" target="129" edge="1"><mxGeometry relative="1" as="geometry"/></mxCell><mxCell id="142" value="&lt;font style=&quot;font-size: 18px&quot;&gt;方法4&lt;/font&gt;" style="whiteSpace=wrap;html=1;fillColor=#dae8fc;strokeColor=#6c8ebf;" parent="1" vertex="1"><mxGeometry x="-490" y="3160" width="105" height="40" as="geometry"/></mxCell><mxCell id="144" value="" style="whiteSpace=wrap;html=1;fillColor=#dae8fc;strokeColor=#6c8ebf;" parent="1" vertex="1"><mxGeometry x="-125" y="3160" width="300" height="220" as="geometry"/></mxCell><mxCell id="145" value="&lt;font style=&quot;font-size: 18px&quot;&gt;局部变量表&lt;/font&gt;" style="whiteSpace=wrap;html=1;fillColor=#fff2cc;strokeColor=#d6b656;" parent="1" vertex="1"><mxGeometry x="-105" y="3180" width="115" height="50" as="geometry"/></mxCell><mxCell id="146" value="&lt;font style=&quot;font-size: 18px&quot;&gt;方法返回地址&lt;/font&gt;" style="whiteSpace=wrap;html=1;fillColor=#fff2cc;strokeColor=#d6b656;" parent="1" vertex="1"><mxGeometry x="35" y="3180" width="115" height="50" as="geometry"/></mxCell><mxCell id="147" value="&lt;font style=&quot;font-size: 18px&quot;&gt;操作数栈&lt;/font&gt;" style="whiteSpace=wrap;html=1;fillColor=#fff2cc;strokeColor=#d6b656;" parent="1" vertex="1"><mxGeometry x="-105" y="3240" width="115" height="50" as="geometry"/></mxCell><mxCell id="148" value="&lt;font style=&quot;font-size: 18px&quot;&gt;动态链接&lt;/font&gt;" style="whiteSpace=wrap;html=1;fillColor=#fff2cc;strokeColor=#d6b656;" parent="1" vertex="1"><mxGeometry x="35" y="3240" width="115" height="50" as="geometry"/></mxCell><mxCell id="149" value="&lt;font style=&quot;font-size: 18px&quot;&gt;其他附加信息&lt;/font&gt;" style="whiteSpace=wrap;html=1;fillColor=#fff2cc;strokeColor=#d6b656;" parent="1" vertex="1"><mxGeometry x="-105" y="3300" width="260" height="50" as="geometry"/></mxCell></root></mxGraphModel>